#include <stdint.h>
const uint8_t death[] = {
0x4d,0x54,0x68,0x64,0x00,0x00,0x00,0x06,0x00,0x01,0x00,0x02,0x04,0x00,0x4d,0x54,
0x72,0x6b,0x00,0x00,0x00,0x23,0x00,0xff,0x54,0x05,0x60,0x00,0x00,0x00,0x00,0x00,
0xff,0x58,0x04,0x04,0x02,0x18,0x08,0x00,0xff,0x59,0x02,0x00,0x00,0x00,0xff,0x51,
0x03,0x09,0x27,0xc1,0x99,0x52,0xff,0x2f,0x00,0x4d,0x54,0x72,0x6b,0x00,0x00,0x01,
0x36,0x00,0xff,0x09,0x16,0x53,0x6d,0x61,0x72,0x74,0x4d,0x75,0x73,0x69,0x63,0x20,
0x53,0x6f,0x66,0x74,0x53,0x79,0x6e,0x74,0x68,0x20,0x31,0x00,0xff,0x03,0x05,0x50,
0x69,0x61,0x6e,0x6f,0x00,0xc0,0x01,0x00,0xb0,0x07,0x65,0x00,0xb0,0x0a,0x40,0x00,
0xb0,0x07,0x66,0x00,0xb0,0x07,0x6e,0x03,0xb0,0x64,0x00,0x00,0xb0,0x65,0x00,0x00,
0xb0,0x64,0x00,0x00,0xb0,0x65,0x00,0x01,0xb0,0x06,0x0c,0x00,0xb0,0x06,0x0c,0x01,
0xb0,0x26,0x00,0x00,0xb0,0x26,0x00,0x05,0xb0,0x07,0x66,0x00,0xb0,0x07,0x6e,0x00,
0x90,0x43,0x48,0x00,0x90,0x47,0x56,0x00,0x90,0x37,0x50,0x81,0x64,0x80,0x37,0x00,
0x2b,0x80,0x43,0x00,0x0f,0x80,0x47,0x00,0x01,0x90,0x4a,0x43,0x00,0x90,0x4d,0x51,
0x81,0x3e,0x80,0x4a,0x00,0x00,0x80,0x4d,0x00,0x82,0x34,0x90,0x4a,0x43,0x00,0x90,
0x4d,0x4d,0x00,0x90,0x37,0x4b,0x82,0x02,0x80,0x4a,0x00,0x00,0x80,0x4d,0x00,0x00,
0x80,0x37,0x00,0x01,0x90,0x4a,0x44,0x00,0x90,0x4d,0x52,0x00,0x90,0x37,0x4c,0x82,
0x40,0x80,0x4a,0x00,0x00,0x80,0x37,0x00,0x14,0x80,0x4d,0x00,0x01,0x90,0x48,0x43,
0x00,0x90,0x4c,0x51,0x00,0x90,0x39,0x4b,0x82,0x34,0x80,0x48,0x00,0x00,0x80,0x39,
0x00,0x14,0x80,0x4c,0x00,0x01,0x90,0x47,0x43,0x00,0x90,0x4a,0x51,0x00,0x90,0x3b,
0x4b,0x82,0x44,0x80,0x47,0x00,0x00,0x80,0x3b,0x00,0x14,0x80,0x4a,0x00,0x01,0x90,
0x43,0x46,0x00,0x90,0x48,0x54,0x00,0x90,0x3c,0x4e,0x81,0x4a,0x80,0x3c,0x00,0x2d,
0x80,0x43,0x00,0x0f,0x80,0x48,0x00,0x01,0x90,0x40,0x4b,0x81,0x3b,0x80,0x40,0x00,
0x3c,0x90,0x37,0x4b,0x81,0x45,0x80,0x37,0x00,0x33,0x90,0x40,0x4b,0x81,0x71,0x80,
0x40,0x00,0x10,0x90,0x3c,0x4c,0x00,0x90,0x30,0x4c,0x81,0x45,0x80,0x3c,0x00,0x00,
0x80,0x30,0x00,0x01,0xff,0x2f,0x00,
};

