#include <stdint.h>
const uint8_t flag[] = {
0x4d,0x54,0x68,0x64,0x00,0x00,0x00,0x06,0x00,0x01,0x00,0x04,0x01,0xe0,0x4d,0x54,
0x72,0x6b,0x00,0x00,0x00,0x49,0x00,0xff,0x51,0x03,0x06,0x50,0x01,0x00,0xff,0x58,
0x04,0x04,0x02,0x18,0x08,0x00,0xff,0x02,0x21,0x43,0x6f,0x70,0x79,0x72,0x69,0x67,
0x68,0x74,0x20,0xa9,0x20,0x31,0x39,0x39,0x38,0x20,0x4d,0x79,0x20,0x4d,0x75,0x73,
0x69,0x63,0x20,0x43,0x6f,0x6d,0x70,0x61,0x6e,0x79,0x00,0xff,0x03,0x0c,0x53,0x69,
0x6e,0x67,0x6c,0x65,0x20,0x53,0x74,0x61,0x66,0x66,0xbc,0x00,0xff,0x2f,0x00,0x4d,
0x54,0x72,0x6b,0x00,0x00,0x00,0xd8,0x00,0xb0,0x00,0x00,0x00,0x20,0x00,0x00,0xc0,
0x47,0x00,0xff,0x03,0x07,0x54,0x72,0x61,0x63,0x6b,0x20,0x31,0x00,0x90,0x37,0x64,
0x81,0x18,0x37,0x00,0x07,0x3c,0x64,0x81,0x18,0x3c,0x00,0x08,0x40,0x64,0x81,0x17,
0x40,0x00,0x0a,0x43,0x64,0x81,0x18,0x43,0x00,0x07,0x48,0x64,0x81,0x18,0x48,0x00,
0x08,0x4c,0x64,0x81,0x17,0x4c,0x00,0x0a,0x4f,0x64,0x83,0x48,0x4f,0x00,0x18,0x4c,
0x64,0x83,0x48,0x4c,0x00,0x18,0x38,0x64,0x81,0x18,0x38,0x00,0x07,0x3c,0x64,0x81,
0x18,0x3c,0x00,0x08,0x3f,0x64,0x81,0x17,0x3f,0x00,0x0a,0x44,0x64,0x81,0x18,0x44,
0x00,0x07,0x48,0x64,0x81,0x18,0x48,0x00,0x08,0x4b,0x64,0x81,0x17,0x4b,0x00,0x0a,
0x50,0x64,0x83,0x48,0x50,0x00,0x18,0x4b,0x64,0x83,0x48,0x4b,0x00,0x18,0x3a,0x64,
0x81,0x18,0x3a,0x00,0x07,0x3e,0x64,0x81,0x18,0x3e,0x00,0x08,0x41,0x64,0x81,0x17,
0x41,0x00,0x0a,0x46,0x64,0x81,0x18,0x46,0x00,0x07,0x4a,0x64,0x81,0x18,0x4a,0x00,
0x08,0x4d,0x64,0x81,0x17,0x4d,0x00,0x0a,0x52,0x64,0x83,0x48,0x52,0x00,0x18,0x52,
0x64,0x81,0x18,0x52,0x00,0x07,0x52,0x64,0x81,0x18,0x52,0x00,0x08,0x52,0x64,0x81,
0x17,0x52,0x00,0x0a,0x4c,0x64,0x83,0x48,0x4c,0x00,0x8b,0x38,0xff,0x2f,0x00,0x4d,
0x54,0x72,0x6b,0x00,0x00,0x00,0xbd,0x00,0xb1,0x00,0x00,0x00,0x20,0x00,0x00,0xc1,
0x47,0x00,0xff,0x03,0x0c,0x53,0x65,0x71,0x75,0x65,0x6e,0x63,0x65,0x64,0x20,0x42,
0x79,0x81,0x20,0x91,0x34,0x5a,0x81,0x18,0x34,0x00,0x08,0x37,0x5a,0x81,0x18,0x37,
0x00,0x08,0x3c,0x5a,0x81,0x18,0x3c,0x00,0x08,0x40,0x5a,0x81,0x18,0x40,0x00,0x08,
0x43,0x5a,0x81,0x18,0x43,0x00,0x08,0x48,0x5a,0x83,0x48,0x48,0x00,0x18,0x43,0x5a,
0x83,0x48,0x43,0x00,0x81,0x38,0x33,0x64,0x81,0x18,0x33,0x00,0x08,0x38,0x64,0x81,
0x18,0x38,0x00,0x08,0x3c,0x64,0x81,0x18,0x3c,0x00,0x08,0x3f,0x64,0x81,0x18,0x3f,
0x00,0x08,0x44,0x64,0x81,0x18,0x44,0x00,0x08,0x48,0x5a,0x83,0x48,0x48,0x00,0x18,
0x44,0x5a,0x83,0x48,0x44,0x00,0x81,0x38,0x35,0x64,0x81,0x18,0x35,0x00,0x08,0x3a,
0x64,0x81,0x18,0x3a,0x00,0x08,0x3e,0x64,0x81,0x18,0x3e,0x00,0x08,0x41,0x64,0x81,
0x18,0x41,0x00,0x08,0x46,0x64,0x81,0x18,0x46,0x00,0x08,0x4a,0x64,0x83,0x48,0x4a,
0x00,0x18,0x4a,0x64,0x83,0x48,0x4a,0x00,0x18,0x54,0x64,0x83,0x48,0x54,0x00,0x8b,
0x38,0xff,0x2f,0x00,0x4d,0x54,0x72,0x6b,0x00,0x00,0x00,0xa6,0x00,0xb2,0x00,0x00,
0x00,0x20,0x00,0x00,0xc2,0x47,0x00,0xff,0x03,0x12,0x4d,0x49,0x44,0x49,0x32,0x32,
0x35,0x33,0x36,0x38,0x40,0x61,0x6f,0x6c,0x2e,0x63,0x6f,0x6d,0x83,0x60,0x92,0x30,
0x64,0x81,0x18,0x30,0x00,0x07,0x34,0x64,0x81,0x18,0x34,0x00,0x08,0x37,0x64,0x81,
0x17,0x37,0x00,0x0a,0x40,0x64,0x83,0x48,0x40,0x00,0x18,0x3c,0x64,0x83,0x48,0x3c,
0x00,0x83,0x78,0x30,0x64,0x81,0x18,0x30,0x00,0x07,0x33,0x64,0x81,0x18,0x33,0x00,
0x08,0x38,0x64,0x81,0x17,0x38,0x00,0x0a,0x3f,0x64,0x83,0x48,0x3f,0x00,0x18,0x3c,
0x64,0x83,0x48,0x3c,0x00,0x83,0x78,0x32,0x64,0x81,0x1f,0x35,0x64,0x45,0x32,0x00,
0x53,0x35,0x00,0x08,0x3a,0x64,0x81,0x17,0x3a,0x00,0x0a,0x41,0x64,0x83,0x48,0x41,
0x00,0x18,0x3e,0x64,0x81,0x18,0x3e,0x00,0x07,0x3e,0x64,0x81,0x18,0x3e,0x00,0x08,
0x3e,0x64,0x81,0x17,0x3e,0x00,0x0a,0x3c,0x64,0x83,0x48,0x3c,0x00,0x8b,0x38,0xff,
0x2f,0x00,
};
