#include <stdint.h>
const uint8_t overworld3[] = {
0x4d,0x54,0x68,0x64,0x00,0x00,0x00,0x06,0x00,0x01,0x00,0x03,0x04,0x00,0x4d,0x54,
0x72,0x6b,0x00,0x00,0x00,0xae,0x00,0xff,0x7f,0x0b,0x05,0x0f,0x12,0x03,0x03,0x7f,
0x7f,0x00,0xff,0x01,0x05,0x00,0xff,0x7f,0x0f,0x05,0x0f,0x1c,0x32,0x30,0x31,0x32,
0x2e,0x31,0x30,0x2e,0x30,0x36,0x01,0x03,0x00,0xff,0x7f,0x2a,0x05,0x0f,0x2d,0x4d,
0x69,0x63,0x72,0x6f,0x73,0x6f,0x66,0x74,0x20,0x53,0x61,0x6e,0x73,0x20,0x53,0x65,
0x72,0x69,0x66,0x2c,0x38,0x2e,0x32,0x35,0x2c,0x46,0x61,0x6c,0x73,0x65,0x2c,0x46,
0x61,0x6c,0x73,0x65,0x2c,0x31,0x00,0xff,0x58,0x04,0x04,0x02,0x18,0x08,0x00,0xff,
0x51,0x03,0x05,0x16,0x15,0x00,0xff,0x51,0x03,0x04,0x93,0xe0,0xc0,0x6f,0xff,0x06,
0x04,0x52,0x4d,0x2f,0x41,0x81,0xff,0x7f,0xff,0x06,0x03,0x52,0x50,0x42,0x83,0xff,
0x76,0xff,0x06,0x04,0x52,0x4d,0x2f,0x43,0x81,0xff,0x62,0xff,0x06,0x04,0x52,0x4d,
0x2f,0x41,0x81,0xff,0x78,0xff,0x06,0x04,0x52,0x4d,0x2f,0x44,0x84,0x80,0x26,0xff,
0x06,0x04,0x52,0x4d,0x2f,0x43,0x81,0xff,0x5b,0xff,0x06,0x04,0x52,0x4d,0x2f,0x44,
0x00,0xff,0x2f,0x00,0x4d,0x54,0x72,0x6b,0x00,0x00,0x15,0x7a,0x00,0xff,0x7f,0x05,
0x05,0x0f,0x09,0x0e,0x40,0x00,0xff,0x7f,0x0f,0x05,0x0f,0x06,0x47,0x65,0x6e,0x65,
0x72,0x61,0x6c,0x20,0x4d,0x49,0x44,0x49,0x00,0xff,0x03,0x14,0x41,0x63,0x6f,0x75,
0x73,0x74,0x69,0x63,0x20,0x47,0x72,0x61,0x6e,0x64,0x20,0x50,0x69,0x61,0x6e,0x6f,
0x00,0xc0,0x00,0x00,0x90,0x42,0x50,0x00,0x90,0x4c,0x50,0x84,0x00,0x80,0x42,0x00,
0x00,0x80,0x4c,0x00,0x00,0x90,0x42,0x50,0x00,0x90,0x4c,0x50,0x84,0x00,0x80,0x42,
0x00,0x00,0x80,0x4c,0x00,0x84,0x00,0x90,0x42,0x50,0x00,0x90,0x4c,0x50,0x84,0x00,
0x80,0x42,0x00,0x00,0x80,0x4c,0x00,0x84,0x00,0x90,0x42,0x50,0x00,0x90,0x48,0x50,
0x84,0x00,0x80,0x42,0x00,0x00,0x80,0x48,0x00,0x00,0x90,0x42,0x50,0x00,0x90,0x4c,
0x50,0x84,0x00,0x80,0x42,0x00,0x00,0x80,0x4c,0x00,0x84,0x00,0x90,0x43,0x50,0x00,
0x90,0x47,0x50,0x00,0x90,0x4f,0x50,0x84,0x00,0x80,0x43,0x00,0x00,0x80,0x47,0x00,
0x00,0x80,0x4f,0x00,0x8c,0x00,0x90,0x43,0x50,0x84,0x00,0x80,0x43,0x00,0x8c,0x00,
0x90,0x40,0x50,0x00,0x90,0x48,0x50,0x84,0x00,0x80,0x40,0x00,0x00,0x80,0x48,0x00,
0x88,0x00,0x90,0x3c,0x50,0x00,0x90,0x43,0x50,0x84,0x00,0x80,0x3c,0x00,0x00,0x80,
0x43,0x00,0x88,0x00,0x90,0x37,0x50,0x00,0x90,0x40,0x50,0x84,0x00,0x80,0x37,0x00,
0x00,0x80,0x40,0x00,0x88,0x00,0x90,0x3c,0x50,0x00,0x90,0x45,0x50,0x84,0x00,0x80,
0x3c,0x00,0x00,0x80,0x45,0x00,0x84,0x00,0x90,0x3e,0x50,0x00,0x90,0x47,0x50,0x84,
0x00,0x80,0x3e,0x00,0x00,0x80,0x47,0x00,0x84,0x00,0x90,0x3d,0x50,0x00,0x90,0x46,
0x50,0x84,0x00,0x80,0x3d,0x00,0x00,0x80,0x46,0x00,0x00,0x90,0x3c,0x50,0x00,0x90,
0x45,0x50,0x84,0x00,0x80,0x3c,0x00,0x00,0x80,0x45,0x00,0x84,0x00,0x90,0x3c,0x50,
0x00,0x90,0x43,0x50,0x85,0x2b,0x80,0x3c,0x00,0x00,0x80,0x43,0x00,0x00,0x90,0x43,
0x50,0x00,0x90,0x4c,0x50,0x85,0x2a,0x80,0x43,0x00,0x00,0x80,0x4c,0x00,0x00,0x90,
0x47,0x50,0x00,0x90,0x4f,0x50,0x85,0x2b,0x80,0x47,0x00,0x00,0x80,0x4f,0x00,0x00,
0x90,0x48,0x50,0x00,0x90,0x51,0x50,0x84,0x00,0x80,0x48,0x00,0x00,0x80,0x51,0x00,
0x84,0x00,0x90,0x45,0x50,0x00,0x90,0x4d,0x50,0x84,0x00,0x80,0x45,0x00,0x00,0x80,
0x4d,0x00,0x00,0x90,0x47,0x50,0x00,0x90,0x4f,0x50,0x84,0x00,0x80,0x47,0x00,0x00,
0x80,0x4f,0x00,0x84,0x00,0x90,0x45,0x50,0x00,0x90,0x4c,0x50,0x84,0x00,0x80,0x45,
0x00,0x00,0x80,0x4c,0x00,0x84,0x00,0x90,0x40,0x50,0x00,0x90,0x48,0x50,0x84,0x00,
0x80,0x40,0x00,0x00,0x80,0x48,0x00,0x00,0x90,0x41,0x50,0x00,0x90,0x4a,0x50,0x84,
0x00,0x80,0x41,0x00,0x00,0x80,0x4a,0x00,0x00,0x90,0x3e,0x50,0x00,0x90,0x47,0x50,
0x84,0x00,0x80,0x3e,0x00,0x00,0x80,0x47,0x00,0x88,0x00,0x90,0x40,0x50,0x00,0x90,
0x48,0x50,0x84,0x00,0x80,0x40,0x00,0x00,0x80,0x48,0x00,0x88,0x00,0x90,0x3c,0x50,
0x00,0x90,0x43,0x50,0x84,0x00,0x80,0x3c,0x00,0x00,0x80,0x43,0x00,0x88,0x00,0x90,
0x37,0x50,0x00,0x90,0x40,0x50,0x84,0x00,0x80,0x37,0x00,0x00,0x80,0x40,0x00,0x88,
0x00,0x90,0x3c,0x50,0x00,0x90,0x45,0x50,0x84,0x00,0x80,0x3c,0x00,0x00,0x80,0x45,
0x00,0x84,0x00,0x90,0x3e,0x50,0x00,0x90,0x47,0x50,0x84,0x00,0x80,0x3e,0x00,0x00,
0x80,0x47,0x00,0x84,0x00,0x90,0x3d,0x50,0x00,0x90,0x46,0x50,0x84,0x00,0x80,0x3d,
0x00,0x00,0x80,0x46,0x00,0x00,0x90,0x3c,0x50,0x00,0x90,0x45,0x50,0x84,0x00,0x80,
0x3c,0x00,0x00,0x80,0x45,0x00,0x84,0x00,0x90,0x3c,0x50,0x00,0x90,0x43,0x50,0x85,
0x2b,0x80,0x3c,0x00,0x00,0x80,0x43,0x00,0x00,0x90,0x43,0x50,0x00,0x90,0x4c,0x50,
0x85,0x2a,0x80,0x43,0x00,0x00,0x80,0x4c,0x00,0x00,0x90,0x47,0x50,0x00,0x90,0x4f,
0x50,0x85,0x2b,0x80,0x47,0x00,0x00,0x80,0x4f,0x00,0x00,0x90,0x48,0x50,0x00,0x90,
0x51,0x50,0x84,0x00,0x80,0x48,0x00,0x00,0x80,0x51,0x00,0x84,0x00,0x90,0x45,0x50,
0x00,0x90,0x4d,0x50,0x84,0x00,0x80,0x45,0x00,0x00,0x80,0x4d,0x00,0x00,0x90,0x47,
0x50,0x00,0x90,0x4f,0x50,0x84,0x00,0x80,0x47,0x00,0x00,0x80,0x4f,0x00,0x84,0x00,
0x90,0x45,0x50,0x00,0x90,0x4c,0x50,0x84,0x00,0x80,0x45,0x00,0x00,0x80,0x4c,0x00,
0x84,0x00,0x90,0x40,0x50,0x00,0x90,0x48,0x50,0x84,0x00,0x80,0x40,0x00,0x00,0x80,
0x48,0x00,0x00,0x90,0x41,0x50,0x00,0x90,0x4a,0x50,0x84,0x00,0x80,0x41,0x00,0x00,
0x80,0x4a,0x00,0x00,0x90,0x3e,0x50,0x00,0x90,0x47,0x50,0x84,0x00,0x80,0x3e,0x00,
0x00,0x80,0x47,0x00,0x90,0x00,0x90,0x4c,0x50,0x00,0x90,0x4f,0x50,0x84,0x00,0x80,
0x4c,0x00,0x00,0x80,0x4f,0x00,0x00,0x90,0x4b,0x50,0x00,0x90,0x4e,0x50,0x84,0x00,
0x80,0x4b,0x00,0x00,0x80,0x4e,0x00,0x00,0x90,0x4a,0x50,0x00,0x90,0x4d,0x50,0x84,
0x00,0x80,0x4a,0x00,0x00,0x80,0x4d,0x00,0x00,0x90,0x47,0x50,0x00,0x90,0x4b,0x50,
0x84,0x00,0x80,0x47,0x00,0x00,0x80,0x4b,0x00,0x84,0x00,0x90,0x48,0x50,0x00,0x90,
0x4c,0x50,0x84,0x00,0x80,0x48,0x00,0x00,0x80,0x4c,0x00,0x84,0x00,0x90,0x40,0x50,
0x00,0x90,0x44,0x50,0x84,0x00,0x80,0x40,0x00,0x00,0x80,0x44,0x00,0x00,0x90,0x41,
0x50,0x00,0x90,0x45,0x50,0x84,0x00,0x80,0x41,0x00,0x00,0x80,0x45,0x00,0x00,0x90,
0x43,0x50,0x00,0x90,0x48,0x50,0x84,0x00,0x80,0x43,0x00,0x00,0x80,0x48,0x00,0x84,
0x00,0x90,0x3c,0x50,0x00,0x90,0x45,0x50,0x00,0x80,0x3c,0x00,0x84,0x00,0x80,0x3c,
0x00,0x00,0x80,0x45,0x00,0x00,0x90,0x40,0x50,0x00,0x90,0x48,0x50,0x84,0x00,0x80,
0x40,0x00,0x00,0x80,0x48,0x00,0x00,0x90,0x41,0x50,0x00,0x90,0x4a,0x50,0x84,0x00,
0x80,0x41,0x00,0x00,0x80,0x4a,0x00,0x88,0x00,0x90,0x4c,0x50,0x00,0x90,0x4f,0x50,
0x84,0x00,0x80,0x4c,0x00,0x00,0x80,0x4f,0x00,0x00,0x90,0x4b,0x50,0x00,0x90,0x4e,
0x50,0x84,0x00,0x80,0x4b,0x00,0x00,0x80,0x4e,0x00,0x00,0x90,0x4a,0x50,0x00,0x90,
0x4d,0x50,0x84,0x00,0x80,0x4a,0x00,0x00,0x80,0x4d,0x00,0x00,0x90,0x47,0x50,0x00,
0x90,0x4b,0x50,0x84,0x00,0x80,0x47,0x00,0x00,0x80,0x4b,0x00,0x84,0x00,0x90,0x48,
0x50,0x00,0x90,0x4c,0x50,0x84,0x00,0x80,0x48,0x00,0x00,0x80,0x4c,0x00,0x84,0x00,
0x90,0x4d,0x50,0x00,0x90,0x4f,0x50,0x00,0x90,0x54,0x50,0x84,0x00,0x80,0x4d,0x00,
0x00,0x80,0x4f,0x00,0x00,0x80,0x54,0x00,0x84,0x00,0x90,0x4d,0x50,0x00,0x90,0x4f,
0x50,0x00,0x90,0x54,0x50,0x84,0x00,0x80,0x4d,0x00,0x00,0x80,0x4f,0x00,0x00,0x80,
0x54,0x00,0x00,0x90,0x4d,0x50,0x00,0x90,0x4f,0x50,0x00,0x90,0x54,0x50,0x84,0x00,
0x80,0x4d,0x00,0x00,0x80,0x4f,0x00,0x00,0x80,0x54,0x00,0x94,0x00,0x90,0x4c,0x50,
0x00,0x90,0x4f,0x50,0x84,0x00,0x80,0x4c,0x00,0x00,0x80,0x4f,0x00,0x00,0x90,0x4b,
0x50,0x00,0x90,0x4e,0x50,0x84,0x00,0x80,0x4b,0x00,0x00,0x80,0x4e,0x00,0x00,0x90,
0x4a,0x50,0x00,0x90,0x4d,0x50,0x84,0x00,0x80,0x4a,0x00,0x00,0x80,0x4d,0x00,0x00,
0x90,0x47,0x50,0x00,0x90,0x4b,0x50,0x84,0x00,0x80,0x47,0x00,0x00,0x80,0x4b,0x00,
0x84,0x00,0x90,0x48,0x50,0x00,0x90,0x4c,0x50,0x84,0x00,0x80,0x48,0x00,0x00,0x80,
0x4c,0x00,0x84,0x00,0x90,0x40,0x50,0x00,0x90,0x44,0x50,0x84,0x00,0x80,0x40,0x00,
0x00,0x80,0x44,0x00,0x00,0x90,0x41,0x50,0x00,0x90,0x45,0x50,0x84,0x00,0x80,0x41,
0x00,0x00,0x80,0x45,0x00,0x00,0x90,0x43,0x50,0x00,0x90,0x48,0x50,0x84,0x00,0x80,
0x43,0x00,0x00,0x80,0x48,0x00,0x84,0x00,0x90,0x3c,0x50,0x00,0x90,0x45,0x50,0x00,
0x80,0x3c,0x00,0x84,0x00,0x80,0x3c,0x00,0x00,0x80,0x45,0x00,0x00,0x90,0x40,0x50,
0x00,0x90,0x48,0x50,0x84,0x00,0x80,0x40,0x00,0x00,0x80,0x48,0x00,0x00,0x90,0x41,
0x50,0x00,0x90,0x4a,0x50,0x84,0x00,0x80,0x41,0x00,0x00,0x80,0x4a,0x00,0x88,0x00,
0x90,0x44,0x50,0x00,0x90,0x4b,0x50,0x84,0x00,0x80,0x44,0x00,0x00,0x80,0x4b,0x00,
0x88,0x00,0x90,0x41,0x50,0x00,0x90,0x4a,0x50,0x84,0x00,0x80,0x41,0x00,0x00,0x80,
0x4a,0x00,0x88,0x00,0x90,0x40,0x50,0x00,0x90,0x48,0x50,0x84,0x00,0x80,0x40,0x00,
0x00,0x80,0x48,0x00,0xa4,0x00,0x90,0x4c,0x50,0x00,0x90,0x4f,0x50,0x84,0x00,0x80,
0x4c,0x00,0x00,0x80,0x4f,0x00,0x00,0x90,0x4b,0x50,0x00,0x90,0x4e,0x50,0x84,0x00,
0x80,0x4b,0x00,0x00,0x80,0x4e,0x00,0x00,0x90,0x4a,0x50,0x00,0x90,0x4d,0x50,0x84,
0x00,0x80,0x4a,0x00,0x00,0x80,0x4d,0x00,0x00,0x90,0x47,0x50,0x00,0x90,0x4b,0x50,
0x84,0x00,0x80,0x47,0x00,0x00,0x80,0x4b,0x00,0x84,0x00,0x90,0x48,0x50,0x00,0x90,
0x4c,0x50,0x84,0x00,0x80,0x48,0x00,0x00,0x80,0x4c,0x00,0x84,0x00,0x90,0x40,0x50,
0x00,0x90,0x44,0x50,0x84,0x00,0x80,0x40,0x00,0x00,0x80,0x44,0x00,0x00,0x90,0x41,
0x50,0x00,0x90,0x45,0x50,0x84,0x00,0x80,0x41,0x00,0x00,0x80,0x45,0x00,0x00,0x90,
0x43,0x50,0x00,0x90,0x48,0x50,0x84,0x00,0x80,0x43,0x00,0x00,0x80,0x48,0x00,0x84,
0x00,0x90,0x3c,0x50,0x00,0x90,0x45,0x50,0x00,0x80,0x3c,0x00,0x84,0x00,0x80,0x3c,
0x00,0x00,0x80,0x45,0x00,0x00,0x90,0x40,0x50,0x00,0x90,0x48,0x50,0x84,0x00,0x80,
0x40,0x00,0x00,0x80,0x48,0x00,0x00,0x90,0x41,0x50,0x00,0x90,0x4a,0x50,0x84,0x00,
0x80,0x41,0x00,0x00,0x80,0x4a,0x00,0x88,0x00,0x90,0x4c,0x50,0x00,0x90,0x4f,0x50,
0x84,0x00,0x80,0x4c,0x00,0x00,0x80,0x4f,0x00,0x00,0x90,0x4b,0x50,0x00,0x90,0x4e,
0x50,0x84,0x00,0x80,0x4b,0x00,0x00,0x80,0x4e,0x00,0x00,0x90,0x4a,0x50,0x00,0x90,
0x4d,0x50,0x84,0x00,0x80,0x4a,0x00,0x00,0x80,0x4d,0x00,0x00,0x90,0x47,0x50,0x00,
0x90,0x4b,0x50,0x84,0x00,0x80,0x47,0x00,0x00,0x80,0x4b,0x00,0x84,0x00,0x90,0x48,
0x50,0x00,0x90,0x4c,0x50,0x84,0x00,0x80,0x48,0x00,0x00,0x80,0x4c,0x00,0x84,0x00,
0x90,0x4d,0x50,0x00,0x90,0x4f,0x50,0x00,0x90,0x54,0x50,0x84,0x00,0x80,0x4d,0x00,
0x00,0x80,0x4f,0x00,0x00,0x80,0x54,0x00,0x84,0x00,0x90,0x4d,0x50,0x00,0x90,0x4f,
0x50,0x00,0x90,0x54,0x50,0x84,0x00,0x80,0x4d,0x00,0x00,0x80,0x4f,0x00,0x00,0x80,
0x54,0x00,0x00,0x90,0x4d,0x50,0x00,0x90,0x4f,0x50,0x00,0x90,0x54,0x50,0x84,0x00,
0x80,0x4d,0x00,0x00,0x80,0x4f,0x00,0x00,0x80,0x54,0x00,0x94,0x00,0x90,0x4c,0x50,
0x00,0x90,0x4f,0x50,0x84,0x00,0x80,0x4c,0x00,0x00,0x80,0x4f,0x00,0x00,0x90,0x4b,
0x50,0x00,0x90,0x4e,0x50,0x84,0x00,0x80,0x4b,0x00,0x00,0x80,0x4e,0x00,0x00,0x90,
0x4a,0x50,0x00,0x90,0x4d,0x50,0x84,0x00,0x80,0x4a,0x00,0x00,0x80,0x4d,0x00,0x00,
0x90,0x47,0x50,0x00,0x90,0x4b,0x50,0x84,0x00,0x80,0x47,0x00,0x00,0x80,0x4b,0x00,
0x84,0x00,0x90,0x48,0x50,0x00,0x90,0x4c,0x50,0x84,0x00,0x80,0x48,0x00,0x00,0x80,
0x4c,0x00,0x84,0x00,0x90,0x40,0x50,0x00,0x90,0x44,0x50,0x84,0x00,0x80,0x40,0x00,
0x00,0x80,0x44,0x00,0x00,0x90,0x41,0x50,0x00,0x90,0x45,0x50,0x84,0x00,0x80,0x41,
0x00,0x00,0x80,0x45,0x00,0x00,0x90,0x43,0x50,0x00,0x90,0x48,0x50,0x84,0x00,0x80,
0x43,0x00,0x00,0x80,0x48,0x00,0x84,0x00,0x90,0x3c,0x50,0x00,0x90,0x45,0x50,0x00,
0x80,0x3c,0x00,0x84,0x00,0x80,0x3c,0x00,0x00,0x80,0x45,0x00,0x00,0x90,0x40,0x50,
0x00,0x90,0x48,0x50,0x84,0x00,0x80,0x40,0x00,0x00,0x80,0x48,0x00,0x00,0x90,0x41,
0x50,0x00,0x90,0x4a,0x50,0x84,0x00,0x80,0x41,0x00,0x00,0x80,0x4a,0x00,0x88,0x00,
0x90,0x44,0x50,0x00,0x90,0x4b,0x50,0x84,0x00,0x80,0x44,0x00,0x00,0x80,0x4b,0x00,
0x88,0x00,0x90,0x41,0x50,0x00,0x90,0x4a,0x50,0x84,0x00,0x80,0x41,0x00,0x00,0x80,
0x4a,0x00,0x88,0x00,0x90,0x40,0x50,0x00,0x90,0x48,0x50,0x84,0x00,0x80,0x40,0x00,
0x00,0x80,0x48,0x00,0x9c,0x00,0x90,0x44,0x50,0x00,0x90,0x48,0x50,0x84,0x00,0x80,
0x44,0x00,0x00,0x80,0x48,0x00,0x00,0x90,0x44,0x50,0x00,0x90,0x48,0x50,0x84,0x00,
0x80,0x44,0x00,0x00,0x80,0x48,0x00,0x84,0x00,0x90,0x44,0x50,0x00,0x90,0x48,0x50,
0x84,0x00,0x80,0x44,0x00,0x00,0x80,0x48,0x00,0x84,0x00,0x90,0x44,0x50,0x00,0x90,
0x48,0x50,0x84,0x00,0x80,0x44,0x00,0x00,0x80,0x48,0x00,0x00,0x90,0x46,0x50,0x00,
0x90,0x4a,0x50,0x84,0x00,0x80,0x46,0x00,0x00,0x80,0x4a,0x00,0x84,0x00,0x90,0x43,
0x50,0x00,0x90,0x4c,0x50,0x84,0x00,0x80,0x43,0x00,0x00,0x80,0x4c,0x00,0x00,0x90,
0x40,0x50,0x00,0x90,0x48,0x50,0x84,0x00,0x80,0x40,0x00,0x00,0x80,0x48,0x00,0x84,
0x00,0x90,0x40,0x50,0x00,0x90,0x45,0x50,0x84,0x00,0x80,0x40,0x00,0x00,0x80,0x45,
0x00,0x00,0x90,0x3c,0x50,0x00,0x90,0x43,0x50,0x84,0x00,0x80,0x3c,0x00,0x00,0x80,
0x43,0x00,0x8c,0x00,0x90,0x44,0x50,0x00,0x90,0x48,0x50,0x84,0x00,0x80,0x44,0x00,
0x00,0x80,0x48,0x00,0x00,0x90,0x44,0x50,0x00,0x90,0x48,0x50,0x84,0x00,0x80,0x44,
0x00,0x00,0x80,0x48,0x00,0x84,0x00,0x90,0x44,0x50,0x00,0x90,0x48,0x50,0x84,0x00,
0x80,0x44,0x00,0x00,0x80,0x48,0x00,0x84,0x00,0x90,0x44,0x50,0x00,0x90,0x48,0x50,
0x84,0x00,0x80,0x44,0x00,0x00,0x80,0x48,0x00,0x00,0x90,0x46,0x50,0x00,0x90,0x4a,
0x50,0x84,0x00,0x80,0x46,0x00,0x00,0x80,0x4a,0x00,0x00,0x90,0x43,0x50,0x00,0x90,
0x4c,0x50,0x84,0x00,0x80,0x43,0x00,0x00,0x80,0x4c,0x00,0xa0,0x00,0x90,0x44,0x50,
0x00,0x90,0x48,0x50,0x84,0x00,0x80,0x44,0x00,0x00,0x80,0x48,0x00,0x00,0x90,0x44,
0x50,0x00,0x90,0x48,0x50,0x84,0x00,0x80,0x44,0x00,0x00,0x80,0x48,0x00,0x84,0x00,
0x90,0x44,0x50,0x00,0x90,0x48,0x50,0x84,0x00,0x80,0x44,0x00,0x00,0x80,0x48,0x00,
0x84,0x00,0x90,0x44,0x50,0x00,0x90,0x48,0x50,0x84,0x00,0x80,0x44,0x00,0x00,0x80,
0x48,0x00,0x00,0x90,0x46,0x50,0x00,0x90,0x4a,0x50,0x84,0x00,0x80,0x46,0x00,0x00,
0x80,0x4a,0x00,0x84,0x00,0x90,0x43,0x50,0x00,0x90,0x4c,0x50,0x84,0x00,0x80,0x43,
0x00,0x00,0x80,0x4c,0x00,0x00,0x90,0x40,0x50,0x00,0x90,0x48,0x50,0x84,0x00,0x80,
0x40,0x00,0x00,0x80,0x48,0x00,0x84,0x00,0x90,0x40,0x50,0x00,0x90,0x45,0x50,0x84,
0x00,0x80,0x40,0x00,0x00,0x80,0x45,0x00,0x00,0x90,0x3c,0x50,0x00,0x90,0x43,0x50,
0x84,0x00,0x80,0x3c,0x00,0x00,0x80,0x43,0x00,0x8c,0x00,0x90,0x42,0x50,0x00,0x90,
0x4c,0x50,0x84,0x00,0x80,0x42,0x00,0x00,0x80,0x4c,0x00,0x00,0x90,0x42,0x50,0x00,
0x90,0x4c,0x50,0x84,0x00,0x80,0x42,0x00,0x00,0x80,0x4c,0x00,0x84,0x00,0x90,0x42,
0x50,0x00,0x90,0x4c,0x50,0x84,0x00,0x80,0x42,0x00,0x00,0x80,0x4c,0x00,0x84,0x00,
0x90,0x42,0x50,0x00,0x90,0x48,0x50,0x84,0x00,0x80,0x42,0x00,0x00,0x80,0x48,0x00,
0x00,0x90,0x42,0x50,0x00,0x90,0x4c,0x50,0x84,0x00,0x80,0x42,0x00,0x00,0x80,0x4c,
0x00,0x84,0x00,0x90,0x43,0x50,0x00,0x90,0x47,0x50,0x00,0x90,0x4f,0x50,0x84,0x00,
0x80,0x43,0x00,0x00,0x80,0x47,0x00,0x00,0x80,0x4f,0x00,0x8c,0x00,0x90,0x43,0x50,
0x84,0x00,0x80,0x43,0x00,0x8c,0x00,0x90,0x40,0x50,0x00,0x90,0x48,0x50,0x84,0x00,
0x80,0x40,0x00,0x00,0x80,0x48,0x00,0x88,0x00,0x90,0x3c,0x50,0x00,0x90,0x43,0x50,
0x84,0x00,0x80,0x3c,0x00,0x00,0x80,0x43,0x00,0x88,0x00,0x90,0x37,0x50,0x00,0x90,
0x40,0x50,0x84,0x00,0x80,0x37,0x00,0x00,0x80,0x40,0x00,0x88,0x00,0x90,0x3c,0x50,
0x00,0x90,0x45,0x50,0x84,0x00,0x80,0x3c,0x00,0x00,0x80,0x45,0x00,0x84,0x00,0x90,
0x3e,0x50,0x00,0x90,0x47,0x50,0x84,0x00,0x80,0x3e,0x00,0x00,0x80,0x47,0x00,0x84,
0x00,0x90,0x3d,0x50,0x00,0x90,0x46,0x50,0x84,0x00,0x80,0x3d,0x00,0x00,0x80,0x46,
0x00,0x00,0x90,0x3c,0x50,0x00,0x90,0x45,0x50,0x84,0x00,0x80,0x3c,0x00,0x00,0x80,
0x45,0x00,0x84,0x00,0x90,0x3c,0x50,0x00,0x90,0x43,0x50,0x85,0x2b,0x80,0x3c,0x00,
0x00,0x80,0x43,0x00,0x00,0x90,0x43,0x50,0x00,0x90,0x4c,0x50,0x85,0x2a,0x80,0x43,
0x00,0x00,0x80,0x4c,0x00,0x00,0x90,0x47,0x50,0x00,0x90,0x4f,0x50,0x85,0x2b,0x80,
0x47,0x00,0x00,0x80,0x4f,0x00,0x00,0x90,0x48,0x50,0x00,0x90,0x51,0x50,0x84,0x00,
0x80,0x48,0x00,0x00,0x80,0x51,0x00,0x84,0x00,0x90,0x45,0x50,0x00,0x90,0x4d,0x50,
0x84,0x00,0x80,0x45,0x00,0x00,0x80,0x4d,0x00,0x00,0x90,0x47,0x50,0x00,0x90,0x4f,
0x50,0x84,0x00,0x80,0x47,0x00,0x00,0x80,0x4f,0x00,0x84,0x00,0x90,0x45,0x50,0x00,
0x90,0x4c,0x50,0x84,0x00,0x80,0x45,0x00,0x00,0x80,0x4c,0x00,0x84,0x00,0x90,0x40,
0x50,0x00,0x90,0x48,0x50,0x84,0x00,0x80,0x40,0x00,0x00,0x80,0x48,0x00,0x00,0x90,
0x41,0x50,0x00,0x90,0x4a,0x50,0x84,0x00,0x80,0x41,0x00,0x00,0x80,0x4a,0x00,0x00,
0x90,0x3e,0x50,0x00,0x90,0x47,0x50,0x84,0x00,0x80,0x3e,0x00,0x00,0x80,0x47,0x00,
0x88,0x00,0x90,0x40,0x50,0x00,0x90,0x48,0x50,0x84,0x00,0x80,0x40,0x00,0x00,0x80,
0x48,0x00,0x88,0x00,0x90,0x3c,0x50,0x00,0x90,0x43,0x50,0x84,0x00,0x80,0x3c,0x00,
0x00,0x80,0x43,0x00,0x88,0x00,0x90,0x37,0x50,0x00,0x90,0x40,0x50,0x84,0x00,0x80,
0x37,0x00,0x00,0x80,0x40,0x00,0x88,0x00,0x90,0x3c,0x50,0x00,0x90,0x45,0x50,0x84,
0x00,0x80,0x3c,0x00,0x00,0x80,0x45,0x00,0x84,0x00,0x90,0x3e,0x50,0x00,0x90,0x47,
0x50,0x84,0x00,0x80,0x3e,0x00,0x00,0x80,0x47,0x00,0x84,0x00,0x90,0x3d,0x50,0x00,
0x90,0x46,0x50,0x84,0x00,0x80,0x3d,0x00,0x00,0x80,0x46,0x00,0x00,0x90,0x3c,0x50,
0x00,0x90,0x45,0x50,0x84,0x00,0x80,0x3c,0x00,0x00,0x80,0x45,0x00,0x84,0x00,0x90,
0x3c,0x50,0x00,0x90,0x43,0x50,0x85,0x2b,0x80,0x3c,0x00,0x00,0x80,0x43,0x00,0x00,
0x90,0x43,0x50,0x00,0x90,0x4c,0x50,0x85,0x2a,0x80,0x43,0x00,0x00,0x80,0x4c,0x00,
0x00,0x90,0x47,0x50,0x00,0x90,0x4f,0x50,0x85,0x2b,0x80,0x47,0x00,0x00,0x80,0x4f,
0x00,0x00,0x90,0x48,0x50,0x00,0x90,0x51,0x50,0x84,0x00,0x80,0x48,0x00,0x00,0x80,
0x51,0x00,0x84,0x00,0x90,0x45,0x50,0x00,0x90,0x4d,0x50,0x84,0x00,0x80,0x45,0x00,
0x00,0x80,0x4d,0x00,0x00,0x90,0x47,0x50,0x00,0x90,0x4f,0x50,0x84,0x00,0x80,0x47,
0x00,0x00,0x80,0x4f,0x00,0x84,0x00,0x90,0x45,0x50,0x00,0x90,0x4c,0x50,0x84,0x00,
0x80,0x45,0x00,0x00,0x80,0x4c,0x00,0x84,0x00,0x90,0x40,0x50,0x00,0x90,0x48,0x50,
0x84,0x00,0x80,0x40,0x00,0x00,0x80,0x48,0x00,0x00,0x90,0x41,0x50,0x00,0x90,0x4a,
0x50,0x84,0x00,0x80,0x41,0x00,0x00,0x80,0x4a,0x00,0x00,0x90,0x3e,0x50,0x00,0x90,
0x47,0x50,0x84,0x00,0x80,0x3e,0x00,0x00,0x80,0x47,0x00,0x88,0x00,0x90,0x48,0x50,
0x00,0x90,0x4c,0x50,0x84,0x00,0x80,0x48,0x00,0x00,0x80,0x4c,0x00,0x00,0x90,0x45,
0x50,0x00,0x90,0x48,0x50,0x84,0x00,0x80,0x45,0x00,0x00,0x80,0x48,0x00,0x84,0x00,
0x90,0x40,0x50,0x00,0x90,0x43,0x50,0x84,0x00,0x80,0x40,0x00,0x00,0x80,0x43,0x00,
0x88,0x00,0x90,0x40,0x50,0x00,0x90,0x44,0x50,0x84,0x00,0x80,0x40,0x00,0x00,0x80,
0x44,0x00,0x84,0x00,0x90,0x41,0x50,0x00,0x90,0x45,0x50,0x84,0x00,0x80,0x41,0x00,
0x00,0x80,0x45,0x00,0x00,0x90,0x48,0x50,0x00,0x90,0x4d,0x50,0x84,0x00,0x80,0x48,
0x00,0x00,0x80,0x4d,0x00,0x84,0x00,0x90,0x48,0x50,0x00,0x90,0x4d,0x50,0x84,0x00,
0x80,0x48,0x00,0x00,0x80,0x4d,0x00,0x00,0x90,0x41,0x50,0x00,0x90,0x45,0x50,0x84,
0x00,0x80,0x41,0x00,0x00,0x80,0x45,0x00,0x8c,0x00,0x90,0x43,0x50,0x00,0x90,0x47,
0x50,0x85,0x2b,0x80,0x43,0x00,0x00,0x80,0x47,0x00,0x00,0x90,0x4d,0x50,0x00,0x90,
0x51,0x50,0x85,0x2a,0x80,0x4d,0x00,0x00,0x80,0x51,0x00,0x00,0x90,0x4d,0x50,0x00,
0x90,0x51,0x50,0x85,0x2b,0x80,0x4d,0x00,0x00,0x80,0x51,0x00,0x00,0x90,0x4d,0x50,
0x00,0x90,0x51,0x50,0x85,0x2b,0x80,0x4d,0x00,0x00,0x80,0x51,0x00,0x00,0x90,0x4c,
0x50,0x00,0x90,0x4f,0x50,0x85,0x2a,0x80,0x4c,0x00,0x00,0x80,0x4f,0x00,0x00,0x90,
0x4a,0x50,0x00,0x90,0x4d,0x50,0x85,0x2b,0x80,0x4a,0x00,0x00,0x80,0x4d,0x00,0x00,
0x90,0x48,0x50,0x00,0x90,0x4c,0x50,0x84,0x00,0x80,0x48,0x00,0x00,0x80,0x4c,0x00,
0x00,0x90,0x45,0x50,0x00,0x90,0x48,0x50,0x84,0x00,0x80,0x45,0x00,0x00,0x80,0x48,
0x00,0x84,0x00,0x90,0x41,0x50,0x00,0x90,0x45,0x50,0x84,0x00,0x80,0x41,0x00,0x00,
0x80,0x45,0x00,0x00,0x90,0x40,0x50,0x00,0x90,0x43,0x50,0x84,0x00,0x80,0x40,0x00,
0x00,0x80,0x43,0x00,0x8c,0x00,0x90,0x48,0x50,0x00,0x90,0x4c,0x50,0x84,0x00,0x80,
0x48,0x00,0x00,0x80,0x4c,0x00,0x00,0x90,0x45,0x50,0x00,0x90,0x48,0x50,0x84,0x00,
0x80,0x45,0x00,0x00,0x80,0x48,0x00,0x84,0x00,0x90,0x40,0x50,0x00,0x90,0x43,0x50,
0x84,0x00,0x80,0x40,0x00,0x00,0x80,0x43,0x00,0x88,0x00,0x90,0x40,0x50,0x00,0x90,
0x44,0x50,0x84,0x00,0x80,0x40,0x00,0x00,0x80,0x44,0x00,0x84,0x00,0x90,0x41,0x50,
0x00,0x90,0x45,0x50,0x84,0x00,0x80,0x41,0x00,0x00,0x80,0x45,0x00,0x00,0x90,0x48,
0x50,0x00,0x90,0x4d,0x50,0x84,0x00,0x80,0x48,0x00,0x00,0x80,0x4d,0x00,0x84,0x00,
0x90,0x48,0x50,0x00,0x90,0x4d,0x50,0x84,0x00,0x80,0x48,0x00,0x00,0x80,0x4d,0x00,
0x00,0x90,0x41,0x50,0x00,0x90,0x45,0x50,0x84,0x00,0x80,0x41,0x00,0x00,0x80,0x45,
0x00,0x8c,0x00,0x90,0x43,0x50,0x00,0x90,0x47,0x50,0x84,0x00,0x80,0x43,0x00,0x00,
0x80,0x47,0x00,0x00,0x90,0x4a,0x50,0x00,0x90,0x4d,0x50,0x84,0x00,0x80,0x4a,0x00,
0x00,0x80,0x4d,0x00,0x84,0x00,0x90,0x4a,0x50,0x00,0x90,0x4d,0x50,0x84,0x00,0x80,
0x4a,0x00,0x00,0x80,0x4d,0x00,0x00,0x90,0x4a,0x50,0x00,0x90,0x4d,0x50,0x85,0x2b,
0x80,0x4a,0x00,0x00,0x80,0x4d,0x00,0x00,0x90,0x48,0x50,0x00,0x90,0x4c,0x50,0x85,
0x2a,0x80,0x48,0x00,0x00,0x80,0x4c,0x00,0x00,0x90,0x47,0x50,0x00,0x90,0x4a,0x50,
0x85,0x2b,0x80,0x47,0x00,0x00,0x80,0x4a,0x00,0x00,0x90,0x43,0x50,0x00,0x90,0x48,
0x50,0x84,0x00,0x80,0x43,0x00,0x00,0x80,0x48,0x00,0x00,0x90,0x40,0x50,0x84,0x00,
0x80,0x40,0x00,0x84,0x00,0x90,0x40,0x50,0x84,0x00,0x80,0x40,0x00,0x00,0x90,0x3c,
0x50,0x84,0x00,0x80,0x3c,0x00,0x8c,0x00,0x90,0x48,0x50,0x00,0x90,0x4c,0x50,0x84,
0x00,0x80,0x48,0x00,0x00,0x80,0x4c,0x00,0x00,0x90,0x45,0x50,0x00,0x90,0x48,0x50,
0x84,0x00,0x80,0x45,0x00,0x00,0x80,0x48,0x00,0x84,0x00,0x90,0x40,0x50,0x00,0x90,
0x43,0x50,0x84,0x00,0x80,0x40,0x00,0x00,0x80,0x43,0x00,0x88,0x00,0x90,0x40,0x50,
0x00,0x90,0x44,0x50,0x84,0x00,0x80,0x40,0x00,0x00,0x80,0x44,0x00,0x84,0x00,0x90,
0x41,0x50,0x00,0x90,0x45,0x50,0x84,0x00,0x80,0x41,0x00,0x00,0x80,0x45,0x00,0x00,
0x90,0x48,0x50,0x00,0x90,0x4d,0x50,0x84,0x00,0x80,0x48,0x00,0x00,0x80,0x4d,0x00,
0x84,0x00,0x90,0x48,0x50,0x00,0x90,0x4d,0x50,0x84,0x00,0x80,0x48,0x00,0x00,0x80,
0x4d,0x00,0x00,0x90,0x41,0x50,0x00,0x90,0x45,0x50,0x84,0x00,0x80,0x41,0x00,0x00,
0x80,0x45,0x00,0x8c,0x00,0x90,0x43,0x50,0x00,0x90,0x47,0x50,0x85,0x2b,0x80,0x43,
0x00,0x00,0x80,0x47,0x00,0x00,0x90,0x4d,0x50,0x00,0x90,0x51,0x50,0x85,0x2a,0x80,
0x4d,0x00,0x00,0x80,0x51,0x00,0x00,0x90,0x4d,0x50,0x00,0x90,0x51,0x50,0x85,0x2b,
0x80,0x4d,0x00,0x00,0x80,0x51,0x00,0x00,0x90,0x4d,0x50,0x00,0x90,0x51,0x50,0x85,
0x2b,0x80,0x4d,0x00,0x00,0x80,0x51,0x00,0x00,0x90,0x4c,0x50,0x00,0x90,0x4f,0x50,
0x85,0x2a,0x80,0x4c,0x00,0x00,0x80,0x4f,0x00,0x00,0x90,0x4a,0x50,0x00,0x90,0x4d,
0x50,0x85,0x2b,0x80,0x4a,0x00,0x00,0x80,0x4d,0x00,0x00,0x90,0x48,0x50,0x00,0x90,
0x4c,0x50,0x84,0x00,0x80,0x48,0x00,0x00,0x80,0x4c,0x00,0x00,0x90,0x45,0x50,0x00,
0x90,0x48,0x50,0x84,0x00,0x80,0x45,0x00,0x00,0x80,0x48,0x00,0x84,0x00,0x90,0x41,
0x50,0x00,0x90,0x45,0x50,0x84,0x00,0x80,0x41,0x00,0x00,0x80,0x45,0x00,0x00,0x90,
0x40,0x50,0x00,0x90,0x43,0x50,0x84,0x00,0x80,0x40,0x00,0x00,0x80,0x43,0x00,0x8c,
0x00,0x90,0x48,0x50,0x00,0x90,0x4c,0x50,0x84,0x00,0x80,0x48,0x00,0x00,0x80,0x4c,
0x00,0x00,0x90,0x45,0x50,0x00,0x90,0x48,0x50,0x84,0x00,0x80,0x45,0x00,0x00,0x80,
0x48,0x00,0x84,0x00,0x90,0x40,0x50,0x00,0x90,0x43,0x50,0x84,0x00,0x80,0x40,0x00,
0x00,0x80,0x43,0x00,0x88,0x00,0x90,0x40,0x50,0x00,0x90,0x44,0x50,0x84,0x00,0x80,
0x40,0x00,0x00,0x80,0x44,0x00,0x84,0x00,0x90,0x41,0x50,0x00,0x90,0x45,0x50,0x84,
0x00,0x80,0x41,0x00,0x00,0x80,0x45,0x00,0x00,0x90,0x48,0x50,0x00,0x90,0x4d,0x50,
0x84,0x00,0x80,0x48,0x00,0x00,0x80,0x4d,0x00,0x84,0x00,0x90,0x48,0x50,0x00,0x90,
0x4d,0x50,0x84,0x00,0x80,0x48,0x00,0x00,0x80,0x4d,0x00,0x00,0x90,0x41,0x50,0x00,
0x90,0x45,0x50,0x84,0x00,0x80,0x41,0x00,0x00,0x80,0x45,0x00,0x8c,0x00,0x90,0x43,
0x50,0x00,0x90,0x47,0x50,0x84,0x00,0x80,0x43,0x00,0x00,0x80,0x47,0x00,0x00,0x90,
0x4a,0x50,0x00,0x90,0x4d,0x50,0x84,0x00,0x80,0x4a,0x00,0x00,0x80,0x4d,0x00,0x84,
0x00,0x90,0x4a,0x50,0x00,0x90,0x4d,0x50,0x84,0x00,0x80,0x4a,0x00,0x00,0x80,0x4d,
0x00,0x00,0x90,0x4a,0x50,0x00,0x90,0x4d,0x50,0x85,0x2b,0x80,0x4a,0x00,0x00,0x80,
0x4d,0x00,0x00,0x90,0x48,0x50,0x00,0x90,0x4c,0x50,0x85,0x2a,0x80,0x48,0x00,0x00,
0x80,0x4c,0x00,0x00,0x90,0x47,0x50,0x00,0x90,0x4a,0x50,0x85,0x2b,0x80,0x47,0x00,
0x00,0x80,0x4a,0x00,0x00,0x90,0x43,0x50,0x00,0x90,0x48,0x50,0x84,0x00,0x80,0x43,
0x00,0x00,0x80,0x48,0x00,0x00,0x90,0x40,0x50,0x84,0x00,0x80,0x40,0x00,0x84,0x00,
0x90,0x40,0x50,0x84,0x00,0x80,0x40,0x00,0x00,0x90,0x3c,0x50,0x84,0x00,0x80,0x3c,
0x00,0x8c,0x00,0x90,0x44,0x50,0x00,0x90,0x48,0x50,0x84,0x00,0x80,0x44,0x00,0x00,
0x80,0x48,0x00,0x00,0x90,0x44,0x50,0x00,0x90,0x48,0x50,0x84,0x00,0x80,0x44,0x00,
0x00,0x80,0x48,0x00,0x84,0x00,0x90,0x44,0x50,0x00,0x90,0x48,0x50,0x84,0x00,0x80,
0x44,0x00,0x00,0x80,0x48,0x00,0x84,0x00,0x90,0x44,0x50,0x00,0x90,0x48,0x50,0x84,
0x00,0x80,0x44,0x00,0x00,0x80,0x48,0x00,0x00,0x90,0x46,0x50,0x00,0x90,0x4a,0x50,
0x84,0x00,0x80,0x46,0x00,0x00,0x80,0x4a,0x00,0x84,0x00,0x90,0x43,0x50,0x00,0x90,
0x4c,0x50,0x84,0x00,0x80,0x43,0x00,0x00,0x80,0x4c,0x00,0x00,0x90,0x40,0x50,0x00,
0x90,0x48,0x50,0x84,0x00,0x80,0x40,0x00,0x00,0x80,0x48,0x00,0x84,0x00,0x90,0x40,
0x50,0x00,0x90,0x45,0x50,0x84,0x00,0x80,0x40,0x00,0x00,0x80,0x45,0x00,0x00,0x90,
0x3c,0x50,0x00,0x90,0x43,0x50,0x84,0x00,0x80,0x3c,0x00,0x00,0x80,0x43,0x00,0x8c,
0x00,0x90,0x44,0x50,0x00,0x90,0x48,0x50,0x84,0x00,0x80,0x44,0x00,0x00,0x80,0x48,
0x00,0x00,0x90,0x44,0x50,0x00,0x90,0x48,0x50,0x84,0x00,0x80,0x44,0x00,0x00,0x80,
0x48,0x00,0x84,0x00,0x90,0x44,0x50,0x00,0x90,0x48,0x50,0x84,0x00,0x80,0x44,0x00,
0x00,0x80,0x48,0x00,0x84,0x00,0x90,0x44,0x50,0x00,0x90,0x48,0x50,0x84,0x00,0x80,
0x44,0x00,0x00,0x80,0x48,0x00,0x00,0x90,0x46,0x50,0x00,0x90,0x4a,0x50,0x84,0x00,
0x80,0x46,0x00,0x00,0x80,0x4a,0x00,0x00,0x90,0x43,0x50,0x00,0x90,0x4c,0x50,0x84,
0x00,0x80,0x43,0x00,0x00,0x80,0x4c,0x00,0xa0,0x00,0x90,0x44,0x50,0x00,0x90,0x48,
0x50,0x84,0x00,0x80,0x44,0x00,0x00,0x80,0x48,0x00,0x00,0x90,0x44,0x50,0x00,0x90,
0x48,0x50,0x84,0x00,0x80,0x44,0x00,0x00,0x80,0x48,0x00,0x84,0x00,0x90,0x44,0x50,
0x00,0x90,0x48,0x50,0x84,0x00,0x80,0x44,0x00,0x00,0x80,0x48,0x00,0x84,0x00,0x90,
0x44,0x50,0x00,0x90,0x48,0x50,0x84,0x00,0x80,0x44,0x00,0x00,0x80,0x48,0x00,0x00,
0x90,0x46,0x50,0x00,0x90,0x4a,0x50,0x84,0x00,0x80,0x46,0x00,0x00,0x80,0x4a,0x00,
0x84,0x00,0x90,0x43,0x50,0x00,0x90,0x4c,0x50,0x84,0x00,0x80,0x43,0x00,0x00,0x80,
0x4c,0x00,0x00,0x90,0x40,0x50,0x00,0x90,0x48,0x50,0x84,0x00,0x80,0x40,0x00,0x00,
0x80,0x48,0x00,0x84,0x00,0x90,0x40,0x50,0x00,0x90,0x45,0x50,0x84,0x00,0x80,0x40,
0x00,0x00,0x80,0x45,0x00,0x00,0x90,0x3c,0x50,0x00,0x90,0x43,0x50,0x84,0x00,0x80,
0x3c,0x00,0x00,0x80,0x43,0x00,0x8c,0x00,0x90,0x42,0x50,0x00,0x90,0x4c,0x50,0x84,
0x00,0x80,0x42,0x00,0x00,0x80,0x4c,0x00,0x00,0x90,0x42,0x50,0x00,0x90,0x4c,0x50,
0x84,0x00,0x80,0x42,0x00,0x00,0x80,0x4c,0x00,0x84,0x00,0x90,0x42,0x50,0x00,0x90,
0x4c,0x50,0x84,0x00,0x80,0x42,0x00,0x00,0x80,0x4c,0x00,0x84,0x00,0x90,0x42,0x50,
0x00,0x90,0x48,0x50,0x84,0x00,0x80,0x42,0x00,0x00,0x80,0x48,0x00,0x00,0x90,0x42,
0x50,0x00,0x90,0x4c,0x50,0x84,0x00,0x80,0x42,0x00,0x00,0x80,0x4c,0x00,0x84,0x00,
0x90,0x43,0x50,0x00,0x90,0x47,0x50,0x00,0x90,0x4f,0x50,0x84,0x00,0x80,0x43,0x00,
0x00,0x80,0x47,0x00,0x00,0x80,0x4f,0x00,0x8c,0x00,0x90,0x43,0x50,0x84,0x00,0x80,
0x43,0x00,0x8c,0x00,0x90,0x48,0x50,0x00,0x90,0x4c,0x50,0x84,0x00,0x80,0x48,0x00,
0x00,0x80,0x4c,0x00,0x00,0x90,0x45,0x50,0x00,0x90,0x48,0x50,0x84,0x00,0x80,0x45,
0x00,0x00,0x80,0x48,0x00,0x84,0x00,0x90,0x40,0x50,0x00,0x90,0x43,0x50,0x84,0x00,
0x80,0x40,0x00,0x00,0x80,0x43,0x00,0x88,0x00,0x90,0x40,0x50,0x00,0x90,0x44,0x50,
0x84,0x00,0x80,0x40,0x00,0x00,0x80,0x44,0x00,0x84,0x00,0x90,0x41,0x50,0x00,0x90,
0x45,0x50,0x84,0x00,0x80,0x41,0x00,0x00,0x80,0x45,0x00,0x00,0x90,0x48,0x50,0x00,
0x90,0x4d,0x50,0x84,0x00,0x80,0x48,0x00,0x00,0x80,0x4d,0x00,0x84,0x00,0x90,0x48,
0x50,0x00,0x90,0x4d,0x50,0x84,0x00,0x80,0x48,0x00,0x00,0x80,0x4d,0x00,0x00,0x90,
0x41,0x50,0x00,0x90,0x45,0x50,0x84,0x00,0x80,0x41,0x00,0x00,0x80,0x45,0x00,0x8c,
0x00,0x90,0x43,0x50,0x00,0x90,0x47,0x50,0x85,0x2b,0x80,0x43,0x00,0x00,0x80,0x47,
0x00,0x00,0x90,0x4d,0x50,0x00,0x90,0x51,0x50,0x85,0x2a,0x80,0x4d,0x00,0x00,0x80,
0x51,0x00,0x00,0x90,0x4d,0x50,0x00,0x90,0x51,0x50,0x85,0x2b,0x80,0x4d,0x00,0x00,
0x80,0x51,0x00,0x00,0x90,0x4d,0x50,0x00,0x90,0x51,0x50,0x85,0x2b,0x80,0x4d,0x00,
0x00,0x80,0x51,0x00,0x00,0x90,0x4c,0x50,0x00,0x90,0x4f,0x50,0x85,0x2a,0x80,0x4c,
0x00,0x00,0x80,0x4f,0x00,0x00,0x90,0x4a,0x50,0x00,0x90,0x4d,0x50,0x85,0x2b,0x80,
0x4a,0x00,0x00,0x80,0x4d,0x00,0x00,0x90,0x48,0x50,0x00,0x90,0x4c,0x50,0x84,0x00,
0x80,0x48,0x00,0x00,0x80,0x4c,0x00,0x00,0x90,0x45,0x50,0x00,0x90,0x48,0x50,0x84,
0x00,0x80,0x45,0x00,0x00,0x80,0x48,0x00,0x84,0x00,0x90,0x41,0x50,0x00,0x90,0x45,
0x50,0x84,0x00,0x80,0x41,0x00,0x00,0x80,0x45,0x00,0x00,0x90,0x40,0x50,0x00,0x90,
0x43,0x50,0x84,0x00,0x80,0x40,0x00,0x00,0x80,0x43,0x00,0x8c,0x00,0x90,0x48,0x50,
0x00,0x90,0x4c,0x50,0x84,0x00,0x80,0x48,0x00,0x00,0x80,0x4c,0x00,0x00,0x90,0x45,
0x50,0x00,0x90,0x48,0x50,0x84,0x00,0x80,0x45,0x00,0x00,0x80,0x48,0x00,0x84,0x00,
0x90,0x40,0x50,0x00,0x90,0x43,0x50,0x84,0x00,0x80,0x40,0x00,0x00,0x80,0x43,0x00,
0x88,0x00,0x90,0x40,0x50,0x00,0x90,0x44,0x50,0x84,0x00,0x80,0x40,0x00,0x00,0x80,
0x44,0x00,0x84,0x00,0x90,0x41,0x50,0x00,0x90,0x45,0x50,0x84,0x00,0x80,0x41,0x00,
0x00,0x80,0x45,0x00,0x00,0x90,0x48,0x50,0x00,0x90,0x4d,0x50,0x84,0x00,0x80,0x48,
0x00,0x00,0x80,0x4d,0x00,0x84,0x00,0x90,0x48,0x50,0x00,0x90,0x4d,0x50,0x84,0x00,
0x80,0x48,0x00,0x00,0x80,0x4d,0x00,0x00,0x90,0x41,0x50,0x00,0x90,0x45,0x50,0x84,
0x00,0x80,0x41,0x00,0x00,0x80,0x45,0x00,0x8c,0x00,0x90,0x43,0x50,0x00,0x90,0x47,
0x50,0x84,0x00,0x80,0x43,0x00,0x00,0x80,0x47,0x00,0x00,0x90,0x4a,0x50,0x00,0x90,
0x4d,0x50,0x84,0x00,0x80,0x4a,0x00,0x00,0x80,0x4d,0x00,0x84,0x00,0x90,0x4a,0x50,
0x00,0x90,0x4d,0x50,0x84,0x00,0x80,0x4a,0x00,0x00,0x80,0x4d,0x00,0x00,0x90,0x4a,
0x50,0x00,0x90,0x4d,0x50,0x85,0x2b,0x80,0x4a,0x00,0x00,0x80,0x4d,0x00,0x00,0x90,
0x48,0x50,0x00,0x90,0x4c,0x50,0x85,0x2a,0x80,0x48,0x00,0x00,0x80,0x4c,0x00,0x00,
0x90,0x47,0x50,0x00,0x90,0x4a,0x50,0x85,0x2b,0x80,0x47,0x00,0x00,0x80,0x4a,0x00,
0x00,0x90,0x43,0x50,0x00,0x90,0x48,0x50,0x84,0x00,0x80,0x43,0x00,0x00,0x80,0x48,
0x00,0x00,0x90,0x40,0x50,0x84,0x00,0x80,0x40,0x00,0x84,0x00,0x90,0x40,0x50,0x84,
0x00,0x80,0x40,0x00,0x00,0x90,0x3c,0x40,0x84,0x00,0x80,0x3c,0x00,0x8c,0x00,0x80,
0x3c,0x00,0x00,0xff,0x2f,0x00,0x4d,0x54,0x72,0x6b,0x00,0x00,0x0a,0xef,0x00,0xff,
0x7f,0x05,0x05,0x0f,0x09,0x4e,0x48,0x00,0xc0,0x00,0x00,0xff,0x03,0x14,0x41,0x63,
0x6f,0x75,0x73,0x74,0x69,0x63,0x20,0x47,0x72,0x61,0x6e,0x64,0x20,0x50,0x69,0x61,
0x6e,0x6f,0x00,0xff,0x7f,0x0f,0x05,0x0f,0x06,0x47,0x65,0x6e,0x65,0x72,0x61,0x6c,
0x20,0x4d,0x49,0x44,0x49,0x00,0x90,0x32,0x50,0x84,0x00,0x80,0x32,0x00,0x00,0x90,
0x32,0x50,0x84,0x00,0x80,0x32,0x00,0x84,0x00,0x90,0x32,0x50,0x84,0x00,0x80,0x32,
0x00,0x84,0x00,0x90,0x32,0x50,0x84,0x00,0x80,0x32,0x00,0x00,0x90,0x32,0x50,0x84,
0x00,0x80,0x32,0x00,0x94,0x00,0x90,0x37,0x50,0x84,0x00,0x80,0x37,0x00,0x8c,0x00,
0x90,0x37,0x50,0x84,0x00,0x80,0x37,0x00,0x88,0x00,0x90,0x34,0x50,0x84,0x00,0x80,
0x34,0x00,0x88,0x00,0x90,0x30,0x50,0x84,0x00,0x80,0x30,0x00,0x88,0x00,0x90,0x35,
0x50,0x84,0x00,0x80,0x35,0x00,0x84,0x00,0x90,0x37,0x50,0x84,0x00,0x80,0x37,0x00,
0x84,0x00,0x90,0x36,0x50,0x84,0x00,0x80,0x36,0x00,0x00,0x90,0x35,0x50,0x84,0x00,
0x80,0x35,0x00,0x84,0x00,0x90,0x34,0x50,0x85,0x2b,0x80,0x34,0x00,0x00,0x90,0x3c,
0x50,0x85,0x2a,0x80,0x3c,0x00,0x00,0x90,0x40,0x50,0x85,0x2b,0x80,0x40,0x00,0x00,
0x90,0x41,0x50,0x84,0x00,0x80,0x41,0x00,0x84,0x00,0x90,0x3e,0x50,0x84,0x00,0x80,
0x3e,0x00,0x00,0x90,0x40,0x50,0x84,0x00,0x80,0x40,0x00,0x84,0x00,0x90,0x3c,0x50,
0x84,0x00,0x80,0x3c,0x00,0x84,0x00,0x90,0x39,0x50,0x84,0x00,0x80,0x39,0x00,0x00,
0x90,0x3b,0x50,0x84,0x00,0x80,0x3b,0x00,0x00,0x90,0x37,0x50,0x84,0x00,0x80,0x37,
0x00,0x88,0x00,0x90,0x37,0x50,0x84,0x00,0x80,0x37,0x00,0x88,0x00,0x90,0x34,0x50,
0x84,0x00,0x80,0x34,0x00,0x88,0x00,0x90,0x30,0x50,0x84,0x00,0x80,0x30,0x00,0x88,
0x00,0x90,0x35,0x50,0x84,0x00,0x80,0x35,0x00,0x84,0x00,0x90,0x37,0x50,0x84,0x00,
0x80,0x37,0x00,0x84,0x00,0x90,0x36,0x50,0x84,0x00,0x80,0x36,0x00,0x00,0x90,0x35,
0x50,0x84,0x00,0x80,0x35,0x00,0x84,0x00,0x90,0x34,0x50,0x85,0x2b,0x80,0x34,0x00,
0x00,0x90,0x3c,0x50,0x85,0x2a,0x80,0x3c,0x00,0x00,0x90,0x40,0x50,0x85,0x2b,0x80,
0x40,0x00,0x00,0x90,0x41,0x50,0x84,0x00,0x80,0x41,0x00,0x84,0x00,0x90,0x3e,0x50,
0x84,0x00,0x80,0x3e,0x00,0x00,0x90,0x40,0x50,0x84,0x00,0x80,0x40,0x00,0x84,0x00,
0x90,0x3c,0x50,0x84,0x00,0x80,0x3c,0x00,0x84,0x00,0x90,0x39,0x50,0x84,0x00,0x80,
0x39,0x00,0x00,0x90,0x3b,0x50,0x84,0x00,0x80,0x3b,0x00,0x00,0x90,0x37,0x50,0x84,
0x00,0x80,0x37,0x00,0x88,0x00,0x90,0x30,0x50,0x84,0x00,0x80,0x30,0x00,0x88,0x00,
0x90,0x37,0x50,0x84,0x00,0x80,0x37,0x00,0x88,0x00,0x90,0x3c,0x50,0x84,0x00,0x80,
0x3c,0x00,0x84,0x00,0x90,0x35,0x50,0x84,0x00,0x80,0x35,0x00,0x88,0x00,0x90,0x3c,
0x50,0x84,0x00,0x80,0x3c,0x00,0x00,0x90,0x3c,0x50,0x84,0x00,0x80,0x3c,0x00,0x00,
0x80,0x3c,0x00,0x84,0x00,0x90,0x35,0x50,0x84,0x00,0x80,0x35,0x00,0x84,0x00,0x90,
0x30,0x50,0x84,0x00,0x80,0x30,0x00,0x88,0x00,0x90,0x34,0x50,0x84,0x00,0x80,0x34,
0x00,0x88,0x00,0x90,0x37,0x50,0x84,0x00,0x80,0x37,0x00,0x00,0x90,0x3c,0x40,0x84,
0x00,0x80,0x3c,0x00,0x00,0x80,0x3c,0x00,0x98,0x00,0x90,0x37,0x50,0x84,0x00,0x80,
0x37,0x00,0x84,0x00,0x90,0x30,0x50,0x84,0x00,0x80,0x30,0x00,0x88,0x00,0x90,0x37,
0x50,0x84,0x00,0x80,0x37,0x00,0x88,0x00,0x90,0x3c,0x50,0x84,0x00,0x80,0x3c,0x00,
0x84,0x00,0x90,0x35,0x50,0x84,0x00,0x80,0x35,0x00,0x88,0x00,0x90,0x3c,0x50,0x84,
0x00,0x80,0x3c,0x00,0x00,0x90,0x3c,0x50,0x84,0x00,0x80,0x3c,0x00,0x00,0x80,0x3c,
0x00,0x84,0x00,0x90,0x35,0x50,0x84,0x00,0x80,0x35,0x00,0x84,0x00,0x90,0x30,0x50,
0x84,0x00,0x80,0x30,0x00,0x84,0x00,0x90,0x38,0x50,0x84,0x00,0x80,0x38,0x00,0x88,
0x00,0x90,0x3a,0x50,0x84,0x00,0x80,0x3a,0x00,0x88,0x00,0x90,0x3c,0x40,0x84,0x00,
0x80,0x3c,0x00,0x00,0x80,0x3c,0x00,0x88,0x00,0x90,0x37,0x50,0x84,0x00,0x80,0x37,
0x00,0x00,0x90,0x37,0x50,0x84,0x00,0x80,0x37,0x00,0x84,0x00,0x90,0x30,0x50,0x84,
0x00,0x80,0x30,0x00,0x84,0x00,0x90,0x30,0x50,0x84,0x00,0x80,0x30,0x00,0x88,0x00,
0x90,0x37,0x50,0x84,0x00,0x80,0x37,0x00,0x88,0x00,0x90,0x3c,0x50,0x84,0x00,0x80,
0x3c,0x00,0x84,0x00,0x90,0x35,0x50,0x84,0x00,0x80,0x35,0x00,0x88,0x00,0x90,0x3c,
0x50,0x84,0x00,0x80,0x3c,0x00,0x00,0x90,0x3c,0x50,0x84,0x00,0x80,0x3c,0x00,0x00,
0x80,0x3c,0x00,0x84,0x00,0x90,0x35,0x50,0x84,0x00,0x80,0x35,0x00,0x84,0x00,0x90,
0x30,0x50,0x84,0x00,0x80,0x30,0x00,0x88,0x00,0x90,0x34,0x50,0x84,0x00,0x80,0x34,
0x00,0x88,0x00,0x90,0x37,0x50,0x84,0x00,0x80,0x37,0x00,0x00,0x90,0x3c,0x40,0x84,
0x00,0x80,0x3c,0x00,0x00,0x80,0x3c,0x00,0x98,0x00,0x90,0x37,0x50,0x84,0x00,0x80,
0x37,0x00,0x84,0x00,0x90,0x30,0x50,0x84,0x00,0x80,0x30,0x00,0x88,0x00,0x90,0x37,
0x50,0x84,0x00,0x80,0x37,0x00,0x88,0x00,0x90,0x3c,0x50,0x84,0x00,0x80,0x3c,0x00,
0x84,0x00,0x90,0x35,0x50,0x84,0x00,0x80,0x35,0x00,0x88,0x00,0x90,0x3c,0x50,0x84,
0x00,0x80,0x3c,0x00,0x00,0x90,0x3c,0x50,0x84,0x00,0x80,0x3c,0x00,0x00,0x80,0x3c,
0x00,0x84,0x00,0x90,0x35,0x50,0x84,0x00,0x80,0x35,0x00,0x84,0x00,0x90,0x30,0x50,
0x84,0x00,0x80,0x30,0x00,0x84,0x00,0x90,0x38,0x50,0x84,0x00,0x80,0x38,0x00,0x88,
0x00,0x90,0x3a,0x50,0x84,0x00,0x80,0x3a,0x00,0x88,0x00,0x90,0x3c,0x40,0x84,0x00,
0x80,0x3c,0x00,0x00,0x80,0x3c,0x00,0x88,0x00,0x90,0x37,0x50,0x84,0x00,0x80,0x37,
0x00,0x00,0x90,0x37,0x50,0x84,0x00,0x80,0x37,0x00,0x84,0x00,0x90,0x30,0x50,0x84,
0x00,0x80,0x30,0x00,0x84,0x00,0x90,0x2c,0x50,0x84,0x00,0x80,0x2c,0x00,0x88,0x00,
0x90,0x33,0x50,0x84,0x00,0x80,0x33,0x00,0x88,0x00,0x90,0x38,0x50,0x84,0x00,0x80,
0x38,0x00,0x84,0x00,0x90,0x37,0x50,0x84,0x00,0x80,0x37,0x00,0x88,0x00,0x90,0x30,
0x50,0x84,0x00,0x80,0x30,0x00,0x88,0x00,0x90,0x2b,0x50,0x84,0x00,0x80,0x2b,0x00,
0x84,0x00,0x90,0x2c,0x50,0x84,0x00,0x80,0x2c,0x00,0x88,0x00,0x90,0x33,0x50,0x84,
0x00,0x80,0x33,0x00,0x88,0x00,0x90,0x38,0x50,0x84,0x00,0x80,0x38,0x00,0x84,0x00,
0x90,0x37,0x50,0x84,0x00,0x80,0x37,0x00,0x88,0x00,0x90,0x30,0x50,0x84,0x00,0x80,
0x30,0x00,0x88,0x00,0x90,0x2b,0x50,0x84,0x00,0x80,0x2b,0x00,0x84,0x00,0x90,0x2c,
0x50,0x84,0x00,0x80,0x2c,0x00,0x88,0x00,0x90,0x33,0x50,0x84,0x00,0x80,0x33,0x00,
0x88,0x00,0x90,0x38,0x50,0x84,0x00,0x80,0x38,0x00,0x84,0x00,0x90,0x37,0x50,0x84,
0x00,0x80,0x37,0x00,0x88,0x00,0x90,0x30,0x50,0x84,0x00,0x80,0x30,0x00,0x88,0x00,
0x90,0x2b,0x50,0x84,0x00,0x80,0x2b,0x00,0x84,0x00,0x90,0x32,0x50,0x84,0x00,0x80,
0x32,0x00,0x00,0x90,0x32,0x50,0x84,0x00,0x80,0x32,0x00,0x84,0x00,0x90,0x32,0x50,
0x84,0x00,0x80,0x32,0x00,0x84,0x00,0x90,0x32,0x50,0x84,0x00,0x80,0x32,0x00,0x00,
0x90,0x32,0x50,0x84,0x00,0x80,0x32,0x00,0x94,0x00,0x90,0x37,0x50,0x84,0x00,0x80,
0x37,0x00,0x8c,0x00,0x90,0x37,0x50,0x84,0x00,0x80,0x37,0x00,0x88,0x00,0x90,0x34,
0x50,0x84,0x00,0x80,0x34,0x00,0x88,0x00,0x90,0x30,0x50,0x84,0x00,0x80,0x30,0x00,
0x88,0x00,0x90,0x35,0x50,0x84,0x00,0x80,0x35,0x00,0x84,0x00,0x90,0x37,0x50,0x84,
0x00,0x80,0x37,0x00,0x84,0x00,0x90,0x36,0x50,0x84,0x00,0x80,0x36,0x00,0x00,0x90,
0x35,0x50,0x84,0x00,0x80,0x35,0x00,0x84,0x00,0x90,0x34,0x50,0x85,0x2b,0x80,0x34,
0x00,0x00,0x90,0x3c,0x50,0x85,0x2a,0x80,0x3c,0x00,0x00,0x90,0x40,0x50,0x85,0x2b,
0x80,0x40,0x00,0x00,0x90,0x41,0x50,0x84,0x00,0x80,0x41,0x00,0x84,0x00,0x90,0x3e,
0x50,0x84,0x00,0x80,0x3e,0x00,0x00,0x90,0x40,0x50,0x84,0x00,0x80,0x40,0x00,0x84,
0x00,0x90,0x3c,0x50,0x84,0x00,0x80,0x3c,0x00,0x84,0x00,0x90,0x39,0x50,0x84,0x00,
0x80,0x39,0x00,0x00,0x90,0x3b,0x50,0x84,0x00,0x80,0x3b,0x00,0x00,0x90,0x37,0x50,
0x84,0x00,0x80,0x37,0x00,0x88,0x00,0x90,0x37,0x50,0x84,0x00,0x80,0x37,0x00,0x88,
0x00,0x90,0x34,0x50,0x84,0x00,0x80,0x34,0x00,0x88,0x00,0x90,0x30,0x50,0x84,0x00,
0x80,0x30,0x00,0x88,0x00,0x90,0x35,0x50,0x84,0x00,0x80,0x35,0x00,0x84,0x00,0x90,
0x37,0x50,0x84,0x00,0x80,0x37,0x00,0x84,0x00,0x90,0x36,0x50,0x84,0x00,0x80,0x36,
0x00,0x00,0x90,0x35,0x50,0x84,0x00,0x80,0x35,0x00,0x84,0x00,0x90,0x34,0x50,0x85,
0x2b,0x80,0x34,0x00,0x00,0x90,0x3c,0x50,0x85,0x2a,0x80,0x3c,0x00,0x00,0x90,0x40,
0x50,0x85,0x2b,0x80,0x40,0x00,0x00,0x90,0x41,0x50,0x84,0x00,0x80,0x41,0x00,0x84,
0x00,0x90,0x3e,0x50,0x84,0x00,0x80,0x3e,0x00,0x00,0x90,0x40,0x50,0x84,0x00,0x80,
0x40,0x00,0x84,0x00,0x90,0x3c,0x50,0x84,0x00,0x80,0x3c,0x00,0x84,0x00,0x90,0x39,
0x50,0x84,0x00,0x80,0x39,0x00,0x00,0x90,0x3b,0x50,0x84,0x00,0x80,0x3b,0x00,0x00,
0x90,0x37,0x50,0x84,0x00,0x80,0x37,0x00,0x88,0x00,0x90,0x30,0x50,0x84,0x00,0x80,
0x30,0x00,0x88,0x00,0x90,0x36,0x50,0x84,0x00,0x80,0x36,0x00,0x00,0x90,0x37,0x50,
0x84,0x00,0x80,0x37,0x00,0x84,0x00,0x90,0x3c,0x50,0x84,0x00,0x80,0x3c,0x00,0x84,
0x00,0x90,0x35,0x50,0x84,0x00,0x80,0x35,0x00,0x84,0x00,0x90,0x35,0x50,0x84,0x00,
0x80,0x35,0x00,0x84,0x00,0x90,0x3c,0x50,0x84,0x00,0x80,0x3c,0x00,0x00,0x90,0x3c,
0x50,0x84,0x00,0x80,0x3c,0x00,0x00,0x90,0x35,0x50,0x84,0x00,0x80,0x35,0x00,0x84,
0x00,0x90,0x32,0x50,0x84,0x00,0x80,0x32,0x00,0x88,0x00,0x90,0x35,0x50,0x84,0x00,
0x80,0x35,0x00,0x00,0x90,0x37,0x50,0x84,0x00,0x80,0x37,0x00,0x84,0x00,0x90,0x3b,
0x50,0x84,0x00,0x80,0x3b,0x00,0x84,0x00,0x90,0x37,0x50,0x84,0x00,0x80,0x37,0x00,
0x84,0x00,0x90,0x37,0x50,0x84,0x00,0x80,0x37,0x00,0x84,0x00,0x90,0x3c,0x50,0x84,
0x00,0x80,0x3c,0x00,0x00,0x90,0x3c,0x50,0x84,0x00,0x80,0x3c,0x00,0x00,0x90,0x37,
0x50,0x84,0x00,0x80,0x37,0x00,0x84,0x00,0x90,0x30,0x50,0x84,0x00,0x80,0x30,0x00,
0x88,0x00,0x90,0x36,0x50,0x84,0x00,0x80,0x36,0x00,0x00,0x90,0x37,0x50,0x84,0x00,
0x80,0x37,0x00,0x84,0x00,0x90,0x3c,0x50,0x84,0x00,0x80,0x3c,0x00,0x84,0x00,0x90,
0x35,0x50,0x84,0x00,0x80,0x35,0x00,0x84,0x00,0x90,0x35,0x50,0x84,0x00,0x80,0x35,
0x00,0x84,0x00,0x90,0x3c,0x50,0x84,0x00,0x80,0x3c,0x00,0x00,0x90,0x3c,0x50,0x84,
0x00,0x80,0x3c,0x00,0x00,0x90,0x35,0x50,0x84,0x00,0x80,0x35,0x00,0x84,0x00,0x90,
0x37,0x50,0x84,0x00,0x80,0x37,0x00,0x88,0x00,0x90,0x37,0x50,0x84,0x00,0x80,0x37,
0x00,0x00,0x90,0x37,0x50,0x85,0x2b,0x80,0x37,0x00,0x00,0x90,0x39,0x50,0x85,0x2a,
0x80,0x39,0x00,0x00,0x90,0x3b,0x50,0x85,0x2b,0x80,0x3b,0x00,0x00,0x90,0x3c,0x50,
0x84,0x00,0x80,0x3c,0x00,0x84,0x00,0x90,0x37,0x50,0x84,0x00,0x80,0x37,0x00,0x84,
0x00,0x90,0x30,0x50,0x84,0x00,0x80,0x30,0x00,0x8c,0x00,0x90,0x30,0x50,0x84,0x00,
0x80,0x30,0x00,0x88,0x00,0x90,0x36,0x50,0x84,0x00,0x80,0x36,0x00,0x00,0x90,0x37,
0x50,0x84,0x00,0x80,0x37,0x00,0x84,0x00,0x90,0x3c,0x50,0x84,0x00,0x80,0x3c,0x00,
0x84,0x00,0x90,0x35,0x50,0x84,0x00,0x80,0x35,0x00,0x84,0x00,0x90,0x35,0x50,0x84,
0x00,0x80,0x35,0x00,0x84,0x00,0x90,0x3c,0x50,0x84,0x00,0x80,0x3c,0x00,0x00,0x90,
0x3c,0x50,0x84,0x00,0x80,0x3c,0x00,0x00,0x90,0x35,0x50,0x84,0x00,0x80,0x35,0x00,
0x84,0x00,0x90,0x32,0x50,0x84,0x00,0x80,0x32,0x00,0x88,0x00,0x90,0x35,0x50,0x84,
0x00,0x80,0x35,0x00,0x00,0x90,0x37,0x50,0x84,0x00,0x80,0x37,0x00,0x84,0x00,0x90,
0x3b,0x50,0x84,0x00,0x80,0x3b,0x00,0x84,0x00,0x90,0x37,0x50,0x84,0x00,0x80,0x37,
0x00,0x84,0x00,0x90,0x37,0x50,0x84,0x00,0x80,0x37,0x00,0x84,0x00,0x90,0x3c,0x50,
0x84,0x00,0x80,0x3c,0x00,0x00,0x90,0x3c,0x50,0x84,0x00,0x80,0x3c,0x00,0x00,0x90,
0x37,0x50,0x84,0x00,0x80,0x37,0x00,0x84,0x00,0x90,0x30,0x50,0x84,0x00,0x80,0x30,
0x00,0x88,0x00,0x90,0x36,0x50,0x84,0x00,0x80,0x36,0x00,0x00,0x90,0x37,0x50,0x84,
0x00,0x80,0x37,0x00,0x84,0x00,0x90,0x3c,0x50,0x84,0x00,0x80,0x3c,0x00,0x84,0x00,
0x90,0x35,0x50,0x84,0x00,0x80,0x35,0x00,0x84,0x00,0x90,0x35,0x50,0x84,0x00,0x80,
0x35,0x00,0x84,0x00,0x90,0x3c,0x50,0x84,0x00,0x80,0x3c,0x00,0x00,0x90,0x3c,0x50,
0x84,0x00,0x80,0x3c,0x00,0x00,0x90,0x35,0x50,0x84,0x00,0x80,0x35,0x00,0x84,0x00,
0x90,0x37,0x50,0x84,0x00,0x80,0x37,0x00,0x88,0x00,0x90,0x37,0x50,0x84,0x00,0x80,
0x37,0x00,0x00,0x90,0x37,0x50,0x85,0x2b,0x80,0x37,0x00,0x00,0x90,0x39,0x50,0x85,
0x2a,0x80,0x39,0x00,0x00,0x90,0x3b,0x50,0x85,0x2b,0x80,0x3b,0x00,0x00,0x90,0x3c,
0x50,0x84,0x00,0x80,0x3c,0x00,0x84,0x00,0x90,0x37,0x50,0x84,0x00,0x80,0x37,0x00,
0x84,0x00,0x90,0x30,0x50,0x84,0x00,0x80,0x30,0x00,0x8c,0x00,0x90,0x2c,0x50,0x84,
0x00,0x80,0x2c,0x00,0x88,0x00,0x90,0x33,0x50,0x84,0x00,0x80,0x33,0x00,0x88,0x00,
0x90,0x38,0x50,0x84,0x00,0x80,0x38,0x00,0x84,0x00,0x90,0x37,0x50,0x84,0x00,0x80,
0x37,0x00,0x88,0x00,0x90,0x30,0x50,0x84,0x00,0x80,0x30,0x00,0x88,0x00,0x90,0x2b,
0x50,0x84,0x00,0x80,0x2b,0x00,0x84,0x00,0x90,0x2c,0x50,0x84,0x00,0x80,0x2c,0x00,
0x88,0x00,0x90,0x33,0x50,0x84,0x00,0x80,0x33,0x00,0x88,0x00,0x90,0x38,0x50,0x84,
0x00,0x80,0x38,0x00,0x84,0x00,0x90,0x37,0x50,0x84,0x00,0x80,0x37,0x00,0x88,0x00,
0x90,0x30,0x50,0x84,0x00,0x80,0x30,0x00,0x88,0x00,0x90,0x2b,0x50,0x84,0x00,0x80,
0x2b,0x00,0x84,0x00,0x90,0x2c,0x50,0x84,0x00,0x80,0x2c,0x00,0x88,0x00,0x90,0x33,
0x50,0x84,0x00,0x80,0x33,0x00,0x88,0x00,0x90,0x38,0x50,0x84,0x00,0x80,0x38,0x00,
0x84,0x00,0x90,0x37,0x50,0x84,0x00,0x80,0x37,0x00,0x88,0x00,0x90,0x30,0x50,0x84,
0x00,0x80,0x30,0x00,0x88,0x00,0x90,0x2b,0x50,0x84,0x00,0x80,0x2b,0x00,0x84,0x00,
0x90,0x32,0x50,0x84,0x00,0x80,0x32,0x00,0x00,0x90,0x32,0x50,0x84,0x00,0x80,0x32,
0x00,0x84,0x00,0x90,0x32,0x50,0x84,0x00,0x80,0x32,0x00,0x84,0x00,0x90,0x32,0x50,
0x84,0x00,0x80,0x32,0x00,0x00,0x90,0x32,0x50,0x84,0x00,0x80,0x32,0x00,0x94,0x00,
0x90,0x37,0x50,0x84,0x00,0x80,0x37,0x00,0x8c,0x00,0x90,0x30,0x50,0x84,0x00,0x80,
0x30,0x00,0x88,0x00,0x90,0x36,0x50,0x84,0x00,0x80,0x36,0x00,0x00,0x90,0x37,0x50,
0x84,0x00,0x80,0x37,0x00,0x84,0x00,0x90,0x3c,0x50,0x84,0x00,0x80,0x3c,0x00,0x84,
0x00,0x90,0x35,0x50,0x84,0x00,0x80,0x35,0x00,0x84,0x00,0x90,0x35,0x50,0x84,0x00,
0x80,0x35,0x00,0x84,0x00,0x90,0x3c,0x50,0x84,0x00,0x80,0x3c,0x00,0x00,0x90,0x3c,
0x50,0x84,0x00,0x80,0x3c,0x00,0x00,0x90,0x35,0x50,0x84,0x00,0x80,0x35,0x00,0x84,
0x00,0x90,0x32,0x50,0x84,0x00,0x80,0x32,0x00,0x88,0x00,0x90,0x35,0x50,0x84,0x00,
0x80,0x35,0x00,0x00,0x90,0x37,0x50,0x84,0x00,0x80,0x37,0x00,0x84,0x00,0x90,0x3b,
0x50,0x84,0x00,0x80,0x3b,0x00,0x84,0x00,0x90,0x37,0x50,0x84,0x00,0x80,0x37,0x00,
0x84,0x00,0x90,0x37,0x50,0x84,0x00,0x80,0x37,0x00,0x84,0x00,0x90,0x3c,0x50,0x84,
0x00,0x80,0x3c,0x00,0x00,0x90,0x3c,0x50,0x84,0x00,0x80,0x3c,0x00,0x00,0x90,0x37,
0x50,0x84,0x00,0x80,0x37,0x00,0x84,0x00,0x90,0x30,0x50,0x84,0x00,0x80,0x30,0x00,
0x88,0x00,0x90,0x36,0x50,0x84,0x00,0x80,0x36,0x00,0x00,0x90,0x37,0x50,0x84,0x00,
0x80,0x37,0x00,0x84,0x00,0x90,0x3c,0x50,0x84,0x00,0x80,0x3c,0x00,0x84,0x00,0x90,
0x35,0x50,0x84,0x00,0x80,0x35,0x00,0x84,0x00,0x90,0x35,0x50,0x84,0x00,0x80,0x35,
0x00,0x84,0x00,0x90,0x3c,0x50,0x84,0x00,0x80,0x3c,0x00,0x00,0x90,0x3c,0x50,0x84,
0x00,0x80,0x3c,0x00,0x00,0x90,0x35,0x50,0x84,0x00,0x80,0x35,0x00,0x84,0x00,0x90,
0x37,0x50,0x84,0x00,0x80,0x37,0x00,0x88,0x00,0x90,0x37,0x50,0x84,0x00,0x80,0x37,
0x00,0x00,0x90,0x37,0x50,0x85,0x2b,0x80,0x37,0x00,0x00,0x90,0x39,0x50,0x85,0x2a,
0x80,0x39,0x00,0x00,0x90,0x3b,0x50,0x85,0x2b,0x80,0x3b,0x00,0x00,0x90,0x3c,0x40,
0x84,0x00,0x80,0x3c,0x00,0x88,0x00,0x90,0x37,0x50,0x84,0x00,0x80,0x37,0x00,0x84,
0x00,0x90,0x30,0x40,0x84,0x00,0x80,0x30,0x00,0x00,0xff,0x2f,0x00,
};
